<?xml version="1.0" standalone="no"?>
<!DOCTYPE svg PUBLIC "-//W3C//DTD SVG 20010904//EN"
 "http://www.w3.org/TR/2001/REC-SVG-20010904/DTD/svg10.dtd">
<svg version="1.0" xmlns="http://www.w3.org/2000/svg"
 width="1200.000000pt" height="325.000000pt" viewBox="0 0 1200.000000 325.000000"
 preserveAspectRatio="xMidYMid meet">

<g transform="translate(0.000000,325.000000) scale(0.100000,-0.100000)"
fill="#000000" stroke="none">
<path d="M1474 3243 c-30 -4 -31 -6 -28 -46 2 -23 13 -204 24 -402 11 -198 22
-389 25 -425 4 -42 2 -60 -4 -50 -5 8 -77 207 -161 441 l-153 427 -82 -28
c-46 -15 -121 -46 -169 -68 l-85 -40 73 -154 c40 -84 128 -265 194 -401 67
-136 124 -257 127 -268 4 -12 -129 129 -295 313 -167 183 -309 339 -315 346
-10 11 -31 -4 -114 -84 -56 -54 -115 -114 -131 -134 l-30 -37 334 -302 c184
-166 339 -308 346 -316 7 -8 -109 44 -256 116 -148 72 -338 164 -422 205
l-154 73 -43 -92 c-45 -98 -92 -233 -84 -242 3 -3 201 -75 439 -160 238 -85
436 -157 439 -161 3 -3 -28 -3 -69 1 -168 13 -863 45 -868 40 -9 -9 -15 -230
-8 -289 l7 -56 1614 0 1613 0 7 85 c4 47 4 128 0 181 l-7 96 -92 -6 c-50 -3
-235 -13 -411 -21 -176 -8 -344 -17 -374 -19 -30 -3 -50 -1 -45 3 5 4 201 73
436 152 337 113 428 148 428 161 0 36 -100 280 -132 322 -14 18 -34 9 -434
-193 l-419 -212 63 58 c34 32 190 173 346 313 157 140 285 261 285 268 1 15
-231 252 -246 252 -7 0 -577 -625 -610 -669 -2 -2 -5 -2 -6 0 -2 2 83 184 189
404 106 220 193 406 193 413 1 15 -127 77 -251 120 l-85 30 -154 -434 c-85
-239 -155 -428 -157 -421 -1 7 9 212 22 457 14 244 23 446 20 449 -6 7 -290
10 -330 4z"/>
<path d="M8467 2303 l-34 -108 58 -3 c42 -2 59 -7 59 -17 0 -7 -18 -66 -41
-129 l-41 -116 -58 0 -57 0 -33 -92 c-18 -51 -35 -99 -38 -105 -3 -10 13 -13
62 -13 44 0 66 -4 66 -12 0 -10 -50 -174 -106 -350 l-16 -48 -372 0 -373 0 83
290 c45 159 86 299 89 311 7 20 6 20 -287 17 l-293 -3 -51 -27 c-93 -49 -113
-82 -205 -349 l-83 -239 -79 0 c-64 0 -78 3 -74 14 14 37 126 395 131 423 10
44 -10 108 -44 146 l-28 32 -275 3 -275 3 -103 -311 -104 -310 -93 0 c-74 0
-93 3 -89 13 12 33 207 600 207 604 0 2 -120 3 -267 1 l-268 -3 -65 -31 c-67
-33 -107 -65 -138 -111 -9 -15 -51 -126 -92 -247 l-76 -221 -148 0 -149 0 -98
230 c-55 126 -99 232 -99 236 0 4 64 9 143 11 152 6 201 18 270 65 51 35 78
84 122 223 63 197 55 258 -38 300 -40 18 -70 20 -527 20 l-486 0 -32 -107
c-18 -60 -32 -111 -32 -115 0 -5 21 -8 46 -8 39 0 45 -3 40 -17 -3 -10 -48
-166 -101 -348 -53 -181 -107 -367 -121 -412 l-24 -82 -52 -3 -52 -3 -24 -98
c-14 -54 -23 -99 -21 -101 2 -1 90 0 196 2 l192 4 31 92 c16 50 30 94 30 99 0
4 -16 7 -35 7 -19 0 -35 5 -35 11 0 9 70 241 131 437 10 31 13 32 63 32 l53 0
174 -337 174 -338 741 -3 c700 -2 742 -1 746 15 3 10 42 154 88 321 l83 302
83 0 c107 0 134 -10 134 -50 0 -16 -34 -156 -75 -310 -41 -154 -75 -282 -75
-285 0 -3 193 -5 429 -5 l429 0 -13 -52 c-7 -29 -16 -65 -19 -81 l-6 -27
-1788 0 -1788 0 -22 -84 c-12 -46 -22 -89 -22 -95 0 -8 517 -11 1905 -11
l1904 0 21 73 c63 213 80 271 85 276 3 3 662 7 1464 9 l1457 4 74 252 c40 138
79 272 87 299 l14 47 87 0 c96 0 112 -7 112 -52 0 -16 -29 -141 -65 -279 -36
-137 -65 -254 -65 -259 0 -6 159 -10 416 -10 394 0 415 -1 410 -18 -3 -10 -16
-44 -29 -77 l-23 -60 -1620 -3 -1619 -2 -27 -100 -26 -100 1762 0 1761 0 150
528 c82 290 157 555 166 590 l18 63 -287 -3 c-278 -3 -289 -4 -340 -27 -32
-14 -71 -44 -101 -76 -51 -57 -59 -78 -144 -390 l-32 -120 -97 -3 c-76 -2 -97
0 -93 10 2 7 30 99 61 203 60 206 69 277 40 332 -30 60 -48 63 -323 63 l-248
0 -105 -305 -105 -305 -97 0 -97 0 48 138 c27 75 62 171 77 212 49 133 35 211
-47 252 -28 15 -62 18 -204 18 -184 0 -229 -8 -288 -48 -52 -35 -79 -85 -127
-237 -22 -71 -57 -176 -77 -232 l-36 -103 -93 0 c-52 0 -94 3 -94 6 0 3 60
189 133 412 125 384 132 411 132 487 0 94 -19 131 -88 168 -41 22 -50 22 -454
25 l-412 3 -34 -108z m-3636 -133 c27 -15 25 -67 -6 -113 -44 -65 -56 -67
-320 -67 -129 0 -235 3 -235 8 0 4 14 46 32 95 l32 87 239 0 c145 0 246 -4
258 -10z m4308 -1 c34 -12 51 -35 51 -70 0 -34 -190 -710 -207 -737 -28 -45
-68 -53 -262 -50 l-178 3 56 195 56 195 47 3 c47 3 48 4 59 45 6 23 19 73 30
112 10 38 19 71 19 72 0 2 -16 3 -35 3 -19 0 -35 3 -35 7 0 4 17 58 37 120
l37 113 147 0 c81 0 160 -5 178 -11z m-3471 -441 c-3 -7 -31 -104 -64 -216
l-58 -204 -107 4 c-59 2 -110 6 -114 10 -8 8 79 317 100 359 26 50 51 59 153
59 71 0 93 -3 90 -12z m1762 1 c0 -5 -28 -102 -62 -215 l-61 -204 -134 0 c-73
0 -133 2 -133 4 0 3 20 80 45 173 63 232 82 250 263 252 51 1 82 -3 82 -10z
m2504 -42 c11 -17 -22 -130 -94 -319 l-21 -58 -115 0 c-63 0 -114 3 -114 7 0
20 84 292 100 324 31 60 53 70 149 67 67 -2 86 -6 95 -21z m1734 11 c-3 -7
-33 -97 -67 -200 l-63 -188 -115 0 c-88 0 -114 3 -111 13 3 6 22 76 43 155 55
205 81 232 229 232 66 0 87 -3 84 -12z"/>
<path d="M9776 2086 c-14 -25 -26 -47 -26 -50 0 -3 65 -6 145 -6 80 0 145 3
145 7 0 3 -11 26 -25 50 l-26 43 -93 0 -94 0 -26 -44z"/>
<path d="M326 1316 c-3 -13 -9 -31 -12 -40 -4 -11 -1 -16 11 -16 12 0 16 -6
13 -17 -58 -214 -84 -286 -105 -294 -13 -5 -23 -15 -23 -23 0 -8 -3 -21 -6
-30 -5 -13 2 -16 42 -16 72 0 91 8 103 42 14 38 14 36 -2 40 -11 2 -8 21 12
83 37 115 47 113 121 -34 l60 -121 190 -2 c105 -1 223 -3 262 -3 l73 0 30 110
c29 104 32 110 59 113 55 7 57 1 30 -100 -13 -51 -27 -101 -30 -110 -5 -17 6
-18 145 -18 85 0 151 -4 151 -9 0 -42 22 -41 -621 -41 -335 0 -609 -3 -609 -6
0 -3 8 -19 17 -35 l17 -29 627 0 626 0 16 60 17 60 388 1 c213 1 445 4 516 8
l129 6 30 103 c29 99 30 102 59 102 16 0 31 -6 34 -15 4 -9 -3 -53 -15 -100
-11 -46 -21 -89 -21 -95 0 -6 52 -10 145 -10 l145 0 -12 -25 -11 -25 -568 0
-568 0 -9 -32 -8 -33 614 -3 c339 -1 617 0 620 3 6 6 111 376 112 393 0 9 -27
12 -104 12 -98 0 -106 -2 -135 -26 -17 -14 -31 -31 -31 -36 0 -6 -9 -42 -20
-79 -20 -68 -22 -69 -55 -69 l-33 0 19 63 c22 74 24 120 5 136 -9 8 -46 11
-102 9 l-88 -3 -35 -102 c-36 -103 -36 -103 -69 -103 -22 0 -32 4 -30 13 2 6
14 45 28 85 33 99 28 106 -81 110 -78 2 -87 1 -106 -20 -11 -13 -33 -60 -48
-105 l-27 -83 -35 0 c-26 0 -34 4 -30 14 26 67 88 277 89 299 1 15 -7 36 -17
47 -17 18 -31 20 -170 20 l-152 0 -7 -31 c-9 -45 -8 -49 9 -49 18 0 18 -7 4
-49 -7 -20 -18 -31 -30 -31 -13 0 -25 -12 -35 -35 -18 -44 -18 -45 6 -45 24 0
25 -9 2 -85 l-18 -60 -132 -3 c-73 -1 -132 -1 -132 0 0 2 14 50 30 108 17 58
30 106 30 107 0 2 -47 3 -105 3 -136 0 -143 -5 -185 -120 -30 -84 -34 -90 -60
-90 l-28 0 26 79 c22 67 24 84 14 106 -12 26 -13 26 -114 23 l-101 -3 -35
-102 c-34 -103 -34 -103 -66 -103 l-33 0 34 96 c18 53 33 100 33 105 0 5 -45
9 -99 9 -126 0 -140 -10 -184 -130 l-32 -85 -48 -3 -48 -3 -34 76 c-47 102
-46 105 18 105 76 0 98 15 124 85 27 75 27 81 3 105 -18 18 -33 20 -194 20
l-174 0 -6 -24z m284 -76 c0 -38 -42 -53 -125 -45 -41 4 -75 8 -75 10 0 2 4
15 10 29 9 25 12 26 100 26 83 0 90 -2 90 -20z m1526 6 c5 -13 -45 -212 -66
-263 -9 -21 -16 -23 -84 -23 l-75 0 20 67 c10 38 19 69 19 70 0 2 8 3 19 3 14
0 21 10 26 36 4 22 2 39 -4 43 -7 5 -7 18 1 44 l11 37 64 0 c46 0 65 -4 69
-14z m-1236 -142 c0 -4 -9 -38 -20 -75 l-21 -69 -39 0 c-22 0 -40 4 -40 8 0
18 33 118 42 130 11 12 78 17 78 6z m619 -6 c0 -7 -10 -42 -22 -78 -22 -64
-23 -65 -61 -68 -21 -2 -42 0 -46 5 -4 4 1 36 12 71 14 45 25 66 41 72 33 13
77 12 76 -2z m878 -31 c-3 -18 -12 -50 -21 -70 -14 -34 -18 -37 -57 -37 -32 0
-40 3 -36 14 3 8 11 33 17 55 14 51 34 71 72 71 29 0 30 -2 25 -33z m613 25
c0 -4 -9 -36 -21 -70 -21 -62 -21 -62 -60 -62 -21 0 -39 4 -39 8 0 28 33 113
48 121 20 12 72 14 72 3z"/>
<path d="M2377 1244 c-16 -17 -4 -24 39 -24 32 0 44 4 42 13 -5 13 -69 22 -81
11z"/>
<path d="M5236 1034 c-17 -43 -14 -44 159 -44 l165 0 0 30 0 30 -159 0 c-136
0 -160 -2 -165 -16z"/>
<path d="M750 855 c0 -12 13 -15 55 -15 42 0 55 3 55 15 0 12 -13 15 -55 15
-42 0 -55 -3 -55 -15z"/>
<path d="M350 621 c18 -35 171 -190 249 -253 504 -406 1175 -479 1756 -190
200 99 431 286 537 435 l19 27 -1286 0 c-1268 0 -1286 0 -1275 -19z"/>
</g>
</svg>
